<svg xmlns="http://www.w3.org/2000/svg" width="1200" height="630" viewBox="0 0 1200 630">
  <defs>
    <linearGradient id="bg" x1="0%" y1="0%" x2="100%" y2="100%">
      <stop offset="0%" stop-color="#4f46e5"/>
      <stop offset="100%" stop-color="#4338ca"/>
    </linearGradient>
    <linearGradient id="accentGrad" x1="0%" y1="0%" x2="100%" y2="0%">
      <stop offset="0%" stop-color="#818cf8"/>
      <stop offset="100%" stop-color="#4338ca"/>
    </linearGradient>
  </defs>

  <!-- 배경 -->
  <rect width="1200" height="630" fill="url(#bg)"/>

  <!-- Geometric pattern -->
  <circle cx="1218" cy="225" r="45" fill="#4338ca" opacity="0.19"/>
    <circle cx="761" cy="6" r="34" fill="#4338ca" opacity="0.20"/>
    <circle cx="19" cy="218" r="71" fill="#4338ca" opacity="0.17"/>
    <circle cx="1247" cy="285" r="92" fill="#4338ca" opacity="0.12"/>
    <circle cx="424" cy="42" r="37" fill="#4338ca" opacity="0.11"/>
    <circle cx="38" cy="-70" r="72" fill="#4338ca" opacity="0.19"/>
    <rect x="54" y="-99" width="26" height="61" rx="8" fill="#4f46e5" opacity="0.11" transform="rotate(11, 588, 185)"/>
    <rect x="949" y="630" width="78" height="68" rx="8" fill="#4f46e5" opacity="0.04" transform="rotate(8, 287, 297)"/>
    <rect x="44" y="-95" width="52" height="25" rx="8" fill="#4f46e5" opacity="0.08" transform="rotate(38, 77, 95)"/>
    <rect x="117" y="-11" width="88" height="46" rx="8" fill="#4f46e5" opacity="0.12" transform="rotate(13, 730, 611)"/>
    <rect x="1174" y="669" width="96" height="69" rx="8" fill="#4f46e5" opacity="0.13" transform="rotate(36, 277, 231)"/>
    <rect x="915" y="502" width="22" height="36" rx="8" fill="#4f46e5" opacity="0.09" transform="rotate(18, 753, 316)"/>
    <rect x="1267" y="-70" width="86" height="63" rx="8" fill="#4f46e5" opacity="0.11" transform="rotate(38, 1067, 420)"/>
    <rect x="1142" y="449" width="74" height="27" rx="8" fill="#4f46e5" opacity="0.12" transform="rotate(2, 749, 687)"/>
    <polygon points="160,375 201,457 119,457" fill="#4338ca" opacity="0.12"/>
    <polygon points="817,8 868,110 766,110" fill="#4338ca" opacity="0.09"/>
    <polygon points="303,705 324,747 282,747" fill="#4338ca" opacity="0.05"/>
    <polygon points="60,611 110,711 10,711" fill="#4338ca" opacity="0.07"/>

  <!-- Wave at bottom -->
  <path d="M0,574 C360,602 840,546 1200,574 L1200,630 L0,630Z" fill="#4338ca" opacity="0.3"/>

  <!-- 중앙 텍스트 카드 -->
  <rect x="80" y="195" width="1040" height="260" rx="20" fill="rgba(0,0,0,0.35)" filter="url(#blur-bg)"/>
  <filter id="blur-bg"><feGaussianBlur stdDeviation="8"/></filter>

  <text x="600" y="270" text-anchor="middle" font-family="'Noto Sans JP','Noto Sans KR','Pretendard',sans-serif" font-size="44" font-weight="700" fill="#ffffff" letter-spacing="2">
    마포 럭셔리 단체 가라오케 예약 가이드
  </text>
  <text x="600" y="330" text-anchor="middle" font-family="'Noto Sans JP','Noto Sans KR','Pretendard',sans-serif" font-size="22" font-weight="400" fill="rgba(255,255,255,0.85)">
     — VIP 단체 모임
  </text>

  <!-- Accent line -->
  <line x1="450" y1="355" x2="750" y2="355" stroke="#818cf8" stroke-width="3" stroke-linecap="round" opacity="0.8"/>

  <!-- 하단 CTA -->
  <rect x="440" y="385" width="320" height="40" rx="20" fill="#818cf8" opacity="0.9"/>
  <text x="600" y="411" text-anchor="middle" font-family="'Noto Sans JP','Noto Sans KR','Pretendard',sans-serif" font-size="16" font-weight="600" fill="#ffffff">
    ▼ 자세히 보기
  </text>

  <!-- 상단 브랜드 -->
  <text x="60" y="55" font-family="'Noto Sans JP','Noto Sans KR','Pretendard',sans-serif" font-size="18" font-weight="600" fill="rgba(255,255,255,0.6)">
     마포 럭셔리 단체 가라오케 예약 가이드 — VIP 단체 모임
  </text>
</svg>